<svg xmlns="http://www.w3.org/2000/svg" viewBox="0 0 640 420">
  <defs>
    <linearGradient id="bg" x1="0" x2="1" y1="0" y2="1">
      <stop offset="0" stop-color="#fff7ed"/>
      <stop offset="1" stop-color="#fee2e2"/>
    </linearGradient>
    <filter id="shadow" x="-20%" y="-20%" width="140%" height="140%">
      <feDropShadow dx="0" dy="18" stdDeviation="18" flood-color="#7f1d1d" flood-opacity=".18"/>
    </filter>
  </defs>
  <rect width="640" height="420" rx="36" fill="url(#bg)"/>
  <circle cx="520" cy="80" r="58" fill="#dc2626" opacity=".12"/>
  <circle cx="112" cy="330" r="78" fill="#f97316" opacity=".11"/>
  <g filter="url(#shadow)">
    <ellipse cx="320" cy="248" rx="210" ry="84" fill="#ffffff"/>
    <ellipse cx="320" cy="228" rx="188" ry="58" fill="#fef2f2"/>
    <path d="M166 222c52 42 252 48 310-1 1 71-69 126-157 126-87 0-153-54-153-125z" fill="#dc2626"/>
    <path d="M185 221c55 29 215 34 271 0" fill="none" stroke="#fecaca" stroke-width="18" stroke-linecap="round"/>
  </g>
  <g stroke="#7f1d1d" stroke-width="11" stroke-linecap="round">
    <path d="M438 76L276 206"/>
    <path d="M469 104L302 212"/>
  </g>
  <g fill="#111827" font-family="Arial, sans-serif" font-weight="900">
    <text x="52" y="74" font-size="42">중국집</text>
    <text x="54" y="115" font-size="22" fill="#991b1b">뜨거운 표심 배달 완료</text>
  </g>
  <g fill="#ffffff" font-family="Arial, sans-serif" font-weight="900">
    <text x="250" y="286" font-size="48">짬뽕?</text>
  </g>
</svg>
